<svg width="28" height="28" viewBox="0 0 28 28" fill="none" xmlns="http://www.w3.org/2000/svg">
<path d="M27.6366 26.7717L20.4307 19.5657C22.2861 17.5056 23.4264 14.7895 23.4264 11.8053C23.4264 5.39747 18.2132 0.184211 11.8053 0.184211C5.39748 0.184211 0.184211 5.39747 0.184211 11.8053C0.184211 18.2132 5.39748 23.4264 11.8053 23.4264C14.7895 23.4264 17.5056 22.2861 19.5658 20.4307L26.7717 27.6366C26.8912 27.756 27.0477 27.8158 27.2042 27.8158C27.3607 27.8158 27.5172 27.756 27.6367 27.6366C27.8755 27.3977 27.8755 27.0106 27.6366 26.7717ZM11.8053 22.2031C6.07244 22.2031 1.40752 17.5388 1.40752 11.8053C1.40752 6.07186 6.07244 1.40746 11.8053 1.40746C17.5382 1.40746 22.2031 6.0718 22.2031 11.8053C22.2031 17.5388 17.5382 22.2031 11.8053 22.2031Z" fill="#2C2C2C"/>
<path fill-rule="evenodd" clip-rule="evenodd" d="M27.6367 27.6366C27.5172 27.756 27.3607 27.8158 27.2042 27.8158C27.0477 27.8158 26.8912 27.756 26.7717 27.6366L19.5658 20.4307C17.5056 22.2861 14.7895 23.4264 11.8053 23.4264C5.39748 23.4264 0.184211 18.2132 0.184211 11.8053C0.184211 5.39747 5.39748 0.184211 11.8053 0.184211C18.2132 0.184211 23.4264 5.39747 23.4264 11.8053C23.4264 14.7895 22.2861 17.5056 20.4307 19.5657L27.6366 26.7717C27.8755 27.0106 27.8755 27.3977 27.6367 27.6366ZM27.7668 26.6415L20.6836 19.5582C22.4993 17.4826 23.6107 14.7747 23.6107 11.8053C23.6106 5.29574 18.3149 0 11.8053 0C5.29574 0 0 5.29574 0 11.8053C0 18.3149 5.29574 23.6106 11.8053 23.6106C14.7747 23.6106 17.4826 22.4993 19.5583 20.6836L26.6415 27.7669C26.7968 27.9222 27.0008 28 27.2042 28C27.4076 28 27.6115 27.9222 27.7669 27.7669C28.0777 27.456 28.0777 26.9523 27.7668 26.6415C27.7668 26.6414 27.7669 26.6415 27.7668 26.6415ZM1.59173 11.8053C1.59173 17.437 6.17417 22.0189 11.8053 22.0189C17.4365 22.0189 22.0189 17.4371 22.0189 11.8053C22.0189 6.17355 17.4365 1.59167 11.8053 1.59167C6.17417 1.59167 1.59173 6.1736 1.59173 11.8053ZM1.40752 11.8053C1.40752 17.5388 6.07244 22.2031 11.8053 22.2031C17.5382 22.2031 22.2031 17.5388 22.2031 11.8053C22.2031 6.0718 17.5382 1.40746 11.8053 1.40746C6.07244 1.40746 1.40752 6.07186 1.40752 11.8053Z" fill="#2C2C2C"/>
</svg>
