<svg width="1920" height="700" viewBox="0 0 1920 700" fill="none" xmlns="http://www.w3.org/2000/svg">
<g clip-path="url(#clip0_101_12042)">
<rect width="1920" height="700" fill="url(#paint0_linear_101_12042)"/>
<path d="M1641.79 201.273C1669.39 217.344 1673.15 249.166 1673.15 249.166C1663.06 218.102 1616.44 204.291 1616.44 204.291C1648.34 229.535 1645.01 255.744 1645.01 255.744C1634.16 218.311 1594.26 206.93 1594.26 206.93C1622.62 229.364 1626.38 261.193 1626.38 261.193C1601.35 212.542 1562.95 213.895 1562.95 213.895C1587.01 227.163 1592.81 249.062 1592.81 249.062C1570.41 222.689 1540.04 221.856 1535.27 220.615C1568.23 229.854 1592.27 271.718 1592.27 271.718C1640.42 360.531 1596.21 420.339 1594.15 423.097C1611.92 356.502 1591.19 317.024 1591.19 317.024C1592.91 358.769 1576.15 380.132 1576.15 380.132C1581.76 324.219 1563.27 285.76 1561.43 282.17C1569.2 306.736 1558.22 337.086 1558.22 337.086C1558.54 285.418 1539.32 258.666 1539.32 258.666C1553.52 282.786 1542.54 313.144 1542.54 313.144C1538.84 281.88 1526.3 266.812 1521.86 262.382C1537.27 338.305 1566.03 529.712 1500.68 669.628C1535.46 675.366 1573.07 685.015 1613.09 700H1239.75C1239.75 700 1273.11 681.105 1332.12 670.17C1301.84 596.165 1316.43 499.57 1324.38 460.397C1322.01 462.768 1315.29 470.833 1313.31 487.573C1313.31 487.573 1307.44 471.323 1315.04 458.412C1315.04 458.412 1304.74 472.736 1304.92 500.395C1304.92 500.395 1299.04 484.146 1303.19 470.996C1302.21 472.914 1292.31 493.504 1295.31 523.438C1295.31 523.438 1286.34 512.006 1287.26 489.654C1287.26 489.654 1276.16 510.787 1285.67 546.437C1284.58 544.957 1260.91 512.942 1286.68 465.399C1286.68 465.399 1299.55 442.988 1317.19 438.045C1314.64 438.706 1298.38 439.152 1286.39 453.276C1286.39 453.276 1289.49 441.553 1302.38 434.447C1302.38 434.447 1281.83 433.726 1268.43 459.765C1268.43 459.765 1270.44 442.728 1285.62 430.716C1285.62 430.716 1264.26 436.811 1258.45 456.844C1258.45 456.844 1256.67 442.81 1273.74 429.296C1273.74 429.296 1248.78 436.685 1243.38 453.32C1243.38 453.32 1245.39 436.283 1260.17 427.683C1260.17 427.683 1241.31 427.163 1229 458.516C1229 458.516 1229.23 427.452 1261.77 414.05C1293.56 400.975 1317.52 426.494 1318.61 427.698C1318.32 426.627 1313.24 409.717 1293.92 404.06C1293.92 404.06 1299.61 399.555 1315.34 411.761C1314.53 410.735 1305.31 395.051 1283.66 389.015C1283.66 389.015 1293.76 387.268 1301.38 389.981C1293.11 384.384 1280.28 378.252 1273 377.382C1273 377.382 1280.18 374.78 1293.35 379.805C1293.35 379.805 1278 364.158 1250.86 360.925C1250.86 360.925 1272.02 356.539 1288.18 365.37C1288.18 365.37 1286.88 361.757 1272.42 353.127C1272.42 353.127 1317.81 361.995 1329.54 408.304C1329.54 408.304 1329.37 380.645 1314.02 364.998C1314.93 365.727 1326.79 373.428 1333.64 387.647C1332.52 385.336 1330.38 372.127 1312.24 350.964C1312.24 350.964 1325.74 359.044 1327.81 362.813C1326.48 359.966 1318.67 344.193 1307.07 336.521C1307.07 336.521 1361.37 356.777 1339.86 423.208C1341.06 420.309 1361.14 373.851 1414.51 373.509C1414.51 373.509 1396.92 378.252 1385.54 387.194C1387.43 386.072 1405.23 376.066 1427.27 381.939C1427.27 381.939 1392.57 384.711 1372.8 406.506C1373.68 406.022 1388.08 397.994 1404.5 399.949C1404.5 399.949 1379.54 407.338 1363.96 422.762C1363.96 422.762 1374.95 417.157 1384.72 421.781C1384.72 421.781 1369.05 423.372 1353.47 438.788C1353.47 438.788 1416.14 432.433 1419.88 488.16C1419.88 488.16 1414.71 473.724 1408.33 469.51C1408.81 470.394 1416.49 487.758 1411.49 500.982C1411.49 500.982 1410.91 476.727 1395.16 464.485C1396.06 465.63 1404.13 475.917 1402.52 489.55C1402.52 489.55 1397.74 471.71 1383.38 463.184C1384.18 464.284 1390.66 473.449 1389.15 486.227C1389.15 486.227 1384.83 465.191 1370.34 458.174C1371.33 458.88 1375.61 462.567 1379.75 478.162C1378.94 477.136 1371.42 461.653 1349.77 455.624C1349.77 455.624 1393.21 495.318 1355.79 565.072C1356.32 563.548 1363.28 542.712 1359.48 518.971C1359.48 518.971 1357.86 539.509 1344.92 555.208C1345.49 554.167 1355.68 528.887 1353.5 511.352C1353.5 511.352 1347.69 531.392 1343.5 537.799C1343.5 537.799 1348.73 493.512 1343.56 479.069C1343.56 479.069 1341.94 492.694 1337.35 502.513C1337.35 502.513 1340.54 475.434 1332.08 460.56C1312.48 563.704 1338.58 633.287 1356.51 666.335C1384.2 662.789 1416.29 661.288 1452.19 663.852C1484.49 611.217 1547.85 475.025 1507.47 262.687C1491.66 290.465 1497.64 341.056 1497.64 341.056C1489.04 322.718 1486.04 297.259 1486.04 297.259C1476.37 324.227 1486.15 406.966 1486.15 406.966C1478.31 394.991 1467.46 357.565 1467.46 357.565C1463.4 390.323 1482.43 437.554 1483.5 439.494C1459.32 410.17 1456.28 371.807 1456.28 371.807C1449.19 416.154 1462.2 455.067 1463.18 457.921C1393.29 327.616 1474.44 253.47 1474.44 253.47C1434 264.746 1419.93 293.654 1418.42 295.579C1426.17 266.456 1434.15 259.565 1436 258.249C1408.94 271.347 1400.86 310.646 1400.86 310.646C1398.04 286.778 1410.16 269.652 1411.65 267.6C1384.81 283.515 1375.89 316.846 1375.89 316.846C1372.88 291.387 1387.96 272.164 1389.63 270.031C1360.2 292.903 1359.13 338.209 1359.13 338.209C1349.78 313.508 1364.14 281.077 1365.04 279.419C1353.11 287.291 1343.45 314.259 1343.45 314.259C1350.42 210.164 1467.51 222.027 1467.51 222.027C1438.39 193.223 1409.13 190.257 1409.13 190.257C1427.39 181.627 1447.91 192.093 1447.91 192.093C1418.79 163.29 1372.18 149.486 1372.18 149.486C1402.85 145.829 1429.75 160.829 1431.4 161.729C1394.46 121.017 1329.64 115.836 1329.64 115.836C1370.82 104.864 1404.07 123.551 1407.6 125.648C1386.35 108.96 1353.49 100.092 1353.49 100.092C1453.18 100.731 1490.68 187.522 1492.92 192.941C1452.75 68.8352 1554.19 31 1554.19 31C1532.51 45.3239 1517.93 74.7967 1515.43 80.1115C1519.3 73.0648 1544.53 57.9678 1544.53 57.9678C1510.63 97.5053 1506.64 122.169 1504.55 126.495C1517.35 99.9285 1539.49 85.5452 1541.2 84.1775C1512.51 113.412 1512.2 165.081 1512.2 165.081C1534.11 78.5728 1618.91 62.0115 1618.91 62.0115C1591.89 78.1417 1589.48 84.8836 1589.48 84.8836C1619.66 68.3818 1659.19 76.5807 1659.19 76.5807C1608.49 82.6239 1579.81 111.851 1579.81 111.851C1604.41 102.463 1617.83 107.325 1617.83 107.325C1604.24 108.945 1580.27 120.4 1564.82 130.858C1579.03 125.789 1597.91 129.059 1597.91 129.059C1557.47 140.336 1540.23 169.623 1538.72 171.54C1568.1 148.743 1578.73 157.157 1578.73 157.157C1542.64 167.72 1533.14 199.311 1532.6 201.311C1534.65 199.066 1579.4 151.396 1638.77 175.815C1699.57 200.842 1700 258.874 1700 258.874C1677.02 200.307 1641.79 201.273 1641.79 201.273Z" fill="white" fill-opacity="0.05"/>
<g clip-path="url(#clip1_101_12042)">
<path d="M541.739 692.743C556.645 691.203 575.663 697.366 589.027 702.502C608.045 710.206 625.007 722.019 644.025 729.209C654.819 733.318 666.127 735.886 677.435 736.913C687.715 737.427 697.481 735.886 707.761 736.399C708.789 736.399 710.331 736.399 711.359 736.399C707.247 723.559 703.649 710.719 700.051 697.879C684.117 700.447 669.211 698.393 654.305 692.23C634.259 684.526 614.727 676.308 593.653 671.172C577.205 667.063 544.823 663.468 542.253 641.897C542.253 641.383 542.253 641.383 542.767 640.87C543.281 638.815 544.309 636.761 544.823 634.707C546.365 634.707 547.393 634.193 548.421 634.193C573.607 634.707 595.195 652.683 617.811 660.9C632.717 666.55 648.137 671.172 664.071 674.254C674.351 676.308 685.145 675.281 695.425 676.822C695.425 676.308 694.911 675.795 694.911 675.281C693.883 672.199 693.369 668.604 692.341 665.523C660.987 665.009 640.941 647.547 615.755 631.111C602.905 622.894 588.513 618.271 575.663 610.567C565.897 604.918 560.243 597.727 561.271 586.428C561.785 581.806 567.439 581.292 571.037 582.319C591.597 588.483 607.017 602.863 625.007 613.649C635.801 620.326 648.137 624.435 659.445 629.571C667.669 633.166 678.463 636.247 687.201 640.87C687.201 640.87 687.201 640.356 687.715 640.356C686.173 631.111 685.145 621.867 684.631 613.135C683.603 613.135 683.089 613.135 682.061 613.135C680.519 611.595 678.463 610.054 675.893 609.54H675.379C675.379 609.54 675.379 609.027 674.865 609.027C653.791 600.809 635.287 591.564 616.783 577.183C602.905 566.398 582.345 545.854 585.429 526.337C586.457 521.201 592.625 520.687 596.223 523.255C603.933 527.878 608.559 535.068 614.213 541.745C621.923 550.99 631.175 558.18 640.427 565.371C654.305 576.156 669.211 584.887 682.061 596.7C682.061 596.187 681.547 596.187 681.547 595.673C675.379 566.911 675.379 538.663 674.865 509.902C674.865 491.926 673.323 469.841 689.771 458.028C693.883 455.46 699.537 458.028 701.079 462.137C706.219 476.518 704.163 492.439 702.621 506.82C701.079 524.796 700.051 542.772 697.481 560.748C696.453 568.966 695.425 576.67 695.425 584.374C696.967 580.779 699.023 576.67 700.565 573.075C705.705 562.289 708.789 550.99 713.929 540.204C722.667 521.201 734.489 504.252 743.741 485.249C746.311 480.113 754.535 482.681 754.535 488.331C754.021 510.415 745.797 529.419 733.461 547.395C723.695 561.775 714.443 576.67 705.191 592.078C704.677 593.619 704.163 594.646 703.649 596.187C703.135 596.7 703.135 597.214 702.621 597.214C701.079 598.755 700.051 600.295 699.537 601.836C699.537 602.35 699.537 602.35 699.537 602.863H699.023C697.995 604.404 696.967 605.945 696.453 607.486C696.967 615.703 697.481 623.407 699.023 631.625C702.621 627.516 706.219 622.38 709.817 619.299C721.639 609.027 731.919 599.268 740.143 585.401C752.479 563.83 764.815 542.259 787.945 530.446C791.543 528.391 800.795 531.987 797.711 537.123C787.431 555.612 783.319 578.211 764.815 590.537C759.675 600.295 752.479 609.027 745.283 617.244C743.741 618.785 742.713 620.326 741.171 621.867C741.171 621.867 741.171 622.38 740.657 622.38C738.601 623.407 738.601 623.921 738.087 623.921C727.293 636.247 716.499 648.574 702.107 655.764C703.649 662.955 705.191 670.145 707.247 676.822C715.985 668.604 727.293 662.441 737.059 656.278C752.479 646.519 765.843 635.22 779.721 622.894C791.029 613.135 803.365 604.918 814.159 594.646C823.925 585.915 832.663 578.211 846.027 576.156C849.111 575.643 852.709 578.724 853.223 581.292C855.279 604.404 827.523 618.271 811.075 627.516C797.711 635.22 785.889 642.411 775.095 654.223C765.843 663.982 757.619 674.767 747.339 683.499C739.629 690.175 729.863 698.393 719.069 698.907C717.013 698.907 714.957 698.907 712.901 698.393C715.985 709.179 719.069 719.451 722.153 730.236C748.881 717.396 766.871 692.23 791.029 675.281C804.393 665.523 818.785 656.791 834.205 649.087C849.111 641.383 864.531 632.652 881.493 629.057C882.007 629.057 882.521 629.057 883.035 629.057C883.549 629.571 884.063 630.598 884.577 631.111C885.605 633.166 885.605 635.22 886.119 637.275C886.119 637.275 886.119 637.275 885.605 637.275C885.091 644.465 870.185 655.764 866.073 658.332C851.167 667.577 839.345 677.849 827.523 691.203C818.271 701.988 809.019 712.26 797.197 720.478C786.917 727.668 776.123 732.804 764.815 737.94C754.021 743.59 742.199 749.753 729.863 749.753C729.349 749.753 728.835 749.753 728.321 749.753C731.405 759.511 734.489 769.27 737.573 779.028C751.451 772.865 763.787 767.729 776.123 758.484C782.291 753.862 788.973 749.239 795.655 745.131C805.935 737.427 815.701 729.209 825.981 721.505C838.317 712.26 851.167 705.583 865.559 699.934C874.297 696.339 883.549 693.257 892.287 695.311C895.371 698.907 897.427 703.015 898.969 707.124C903.595 724.587 864.017 735.886 852.709 739.995C833.177 746.671 818.785 762.079 801.823 773.379C785.375 784.164 764.301 799.572 743.227 798.031C743.741 799.059 743.741 800.086 744.255 801.113C746.825 809.844 749.395 818.062 750.937 826.279C757.619 819.603 764.815 814.467 774.581 812.412C776.123 811.899 777.151 811.899 778.693 811.899C794.627 805.735 812.617 804.708 829.065 799.572C838.317 796.491 847.569 793.409 856.821 789.814C875.325 780.055 893.315 770.811 915.417 770.811C918.501 770.811 924.155 772.865 923.127 777.487C917.987 803.681 888.689 806.763 867.101 811.385C830.607 819.089 797.711 843.742 759.675 843.742C757.619 843.742 755.049 842.201 752.993 840.147C753.507 844.255 754.021 848.878 754.535 853.5C756.077 869.422 759.675 886.371 756.591 902.292C755.563 907.428 746.825 905.374 746.311 900.751C745.283 888.939 744.769 876.612 745.283 864.799C744.769 861.718 744.255 858.636 743.741 855.041C734.489 857.609 725.751 857.609 716.499 859.15C706.219 860.691 696.453 864.286 686.173 866.854C667.155 871.99 647.623 876.612 628.091 879.694C609.587 882.775 569.495 888.425 564.869 862.231C564.355 859.663 565.897 857.095 568.467 856.582C582.859 852.473 597.251 848.878 612.157 848.364C620.895 848.364 629.633 848.878 638.885 847.337C648.137 845.796 656.875 842.201 665.613 840.147C687.715 835.011 717.013 823.711 740.657 830.902C738.601 821.657 736.031 812.412 732.947 803.681C715.471 807.276 698.509 808.817 680.519 807.79C661.501 806.249 643.511 802.14 625.007 798.545C615.755 797.004 606.503 795.463 596.737 795.977C589.027 796.491 581.317 797.518 573.607 796.491C565.897 795.463 549.963 790.327 549.963 780.569C549.963 772.351 560.243 770.811 566.411 769.783C582.345 767.215 599.307 767.729 615.241 768.756C633.231 769.783 648.651 775.433 665.613 780.569C685.659 786.732 706.733 788.273 727.807 787.759C727.293 786.219 726.779 785.191 726.779 783.651C722.667 770.811 718.555 757.971 714.443 744.617C708.275 745.644 701.593 746.158 694.911 746.158C680.005 748.726 665.613 751.807 649.679 750.267C629.633 748.212 610.101 742.049 592.111 733.831C583.373 729.723 575.663 724.073 566.925 719.964C559.729 716.883 553.047 717.396 545.851 716.883C540.197 716.369 530.431 716.369 525.291 711.747C523.749 710.719 522.721 709.692 522.721 708.151C522.721 708.151 522.721 707.638 522.207 707.638C520.151 700.961 534.029 693.771 541.739 692.743Z" fill="white" fill-opacity="0.05"/>
</g>
<g clip-path="url(#clip2_101_12042)">
<path opacity="0.4" fill-rule="evenodd" clip-rule="evenodd" d="M322.996 225.246C311.308 233.465 297.036 233.465 285.348 225.246L266.015 211.652L265 213.909L284.332 227.503C296.651 236.166 311.693 236.166 324.012 227.503C335.7 219.284 349.972 219.284 361.66 227.503C373.979 236.166 389.021 236.166 401.34 227.503C413.028 219.284 427.3 219.284 438.988 227.503C451.307 236.166 466.349 236.166 478.668 227.503L498 213.909L496.985 211.652L477.652 225.246C465.964 233.465 451.692 233.465 440.004 225.246C427.685 216.584 412.643 216.584 400.324 225.246C388.636 233.465 374.364 233.465 362.676 225.246C350.357 216.584 335.315 216.584 322.996 225.246Z" fill="white" fill-opacity="0.8"/>
<path opacity="0.4" fill-rule="evenodd" clip-rule="evenodd" d="M322.996 221.362C311.308 229.581 297.036 229.581 285.348 221.362L266.015 207.768L265 210.025L284.332 223.619C296.651 232.282 311.693 232.282 324.012 223.619C335.7 215.4 349.972 215.4 361.66 223.619C373.979 232.282 389.021 232.282 401.34 223.619C413.028 215.4 427.3 215.4 438.988 223.619C451.307 232.282 466.349 232.282 478.668 223.619L498 210.025L496.985 207.768L477.652 221.362C465.964 229.581 451.692 229.581 440.004 221.362C427.685 212.7 412.643 212.7 400.324 221.362C388.636 229.581 374.364 229.581 362.676 221.362C350.357 212.7 335.315 212.7 322.996 221.362Z" fill="white" fill-opacity="0.6"/>
<path opacity="0.4" fill-rule="evenodd" clip-rule="evenodd" d="M322.996 217.478C311.308 225.697 297.036 225.697 285.348 217.478L266.015 203.884L265 206.141L284.332 219.735C296.651 228.398 311.693 228.398 324.012 219.735C335.7 211.516 349.972 211.516 361.66 219.735C373.979 228.398 389.021 228.398 401.34 219.735C413.028 211.516 427.3 211.516 438.988 219.735C451.307 228.398 466.349 228.398 478.668 219.735L498 206.141L496.985 203.884L477.652 217.478C465.964 225.697 451.692 225.697 440.004 217.478C427.685 208.816 412.643 208.816 400.324 217.478C388.636 225.697 374.364 225.697 362.676 217.478C350.357 208.816 335.315 208.816 322.996 217.478Z" fill="white" fill-opacity="0.4"/>
<path opacity="0.4" fill-rule="evenodd" clip-rule="evenodd" d="M322.996 213.594C311.308 221.813 297.036 221.813 285.348 213.594L266.015 200L265 202.257L284.332 215.851C296.651 224.514 311.693 224.514 324.012 215.851C335.7 207.632 349.972 207.632 361.66 215.851C373.979 224.514 389.021 224.514 401.34 215.851C413.028 207.632 427.3 207.632 438.988 215.851C451.307 224.514 466.349 224.514 478.668 215.851L498 202.257L496.985 200L477.652 213.594C465.964 221.813 451.692 221.813 440.004 213.594C427.685 204.932 412.643 204.932 400.324 213.594C388.636 221.813 374.364 221.813 362.676 213.594C350.357 204.932 335.315 204.932 322.996 213.594Z" fill="white" fill-opacity="0.25"/>
</g>
</g>
<defs>
<linearGradient id="paint0_linear_101_12042" x1="0" y1="0" x2="135.425" y2="953.47" gradientUnits="userSpaceOnUse">
<stop stop-color="#CFAFFF"/>
<stop offset="1" stop-color="#A6C6D1"/>
</linearGradient>
<clipPath id="clip0_101_12042">
<rect width="1920" height="700" fill="white"/>
</clipPath>
<clipPath id="clip1_101_12042">
<rect width="401" height="243" fill="white" transform="translate(522 457)"/>
</clipPath>
<clipPath id="clip2_101_12042">
<rect width="224" height="34" fill="white" transform="matrix(1 0 0 -1 265 234)"/>
</clipPath>
</defs>
</svg>
